# xmcd
#
# Track frame offsets:
#	150
#	18280
#	36512
#	53961
#	73462
#	89895
#	108141
#	128075
#	147337
#	167227
#
# Disc length: 2434 seconds
#
# Revision: 1935328022
# Processed by: cddbd v1.5.2PL0 Copyright (c) Steve Scherf et al.
# Submitted via: EZCDAudioConverter 8.0.2.1
#
DISCID=9609800a
DTITLE=Various Artist - Top Hits 32. Đừng Hứa Với Em
DYEAR=2007
DGENRE=Contemporary Pop
TTITLE0=Minh Tuyết, Thaiphoon - Đừng Hứa Với Em
TTITLE1=Dương Triệu Vũ - Thiên đường đánh mất
TTITLE2=Bảo Hân - Thôi nhớ mong mà chi
TTITLE3=Lương Tùng Quang - Cơn đau cuối cùng
TTITLE4=Huỳnh Gia Tuấn - Tan biến - Gone
TTITLE5=Thủy Tiên - Đường vào yêu
TTITLE6=Mai Tiến Dũng - Hoa nắng
TTITLE7=David Meng - Yêu để rồi biết xót xa
TTITLE8=Ninh Cát Loan Châu - Yêu anh thật khó nói
TTITLE9=Lưu Bích - Khi anh ra đi
EXTD=
EXTT0=
EXTT1=
EXTT2=
EXTT3=
EXTT4=
EXTT5=
EXTT6=
EXTT7=
EXTT8=
EXTT9=
PLAYORDER=
